<?xml version="1.0" encoding="UTF-8"?>
<!DOCTYPE svg PUBLIC "-//W3C//DTD SVG 1.1//EN" "http://www.w3.org/Graphics/SVG/1.1/DTD/svg11.dtd">
<svg version="1.1" xmlns="http://www.w3.org/2000/svg" xmlns:xlink="http://www.w3.org/1999/xlink" x="0" y="0" width="199.5" height="91.2" viewBox="0, 0, 350, 160">
  <g id="Layer_1">
    <g>
      <path d="M3.974,106.074 L3.974,60.073 Q3.974,58.516 3.271,57.712 Q2.568,56.909 0.76,56.356 L0.76,54.95 L33.755,54.95 Q44.049,54.95 49.975,57.511 Q58.312,61.127 61.978,69.464 Q64.539,75.289 64.539,83.073 Q64.539,97.486 55.951,104.919 Q52.085,108.233 46.837,109.715 Q41.589,111.196 33.755,111.196 L0.76,111.196 L0.76,109.79 Q2.518,109.338 3.246,108.484 Q3.974,107.63 3.974,106.074 z M17.433,101.001 L31.796,101.001 Q41.689,101.001 46.159,96.482 Q50.829,91.761 50.829,83.073 Q50.829,74.385 46.159,69.665 Q43.849,67.304 40.434,66.225 Q37.019,65.145 31.796,65.145 L17.433,65.145 z" fill="#000000"/>
      <path d="M100.765,53.745 Q114.173,53.745 123.112,60.575 Q133.809,68.811 133.809,83.525 Q133.809,97.335 123.112,105.571 Q114.274,112.401 100.865,112.401 Q87.457,112.401 78.618,105.571 Q67.871,97.335 67.871,83.073 Q67.871,68.66 78.618,60.575 Q87.507,53.896 100.765,53.745 z M100.815,64.392 Q92.127,64.392 86.653,69.966 Q81.581,75.189 81.581,83.073 Q81.581,90.907 86.653,96.13 Q92.127,101.755 100.865,101.755 Q109.553,101.755 115.027,96.13 Q120.099,90.958 120.099,83.324 Q120.099,75.038 115.027,69.966 Q109.503,64.492 100.815,64.392 z" fill="#000000"/>
      <g>
        <path d="M164.839,96.064 L198.604,21.259 Q200.749,16.502 200.749,13.891 Q200.749,9.88 194.593,8.667 L194.593,5.683 L238.152,5.683 L238.152,8.667 Q234.048,9.227 232.462,10.999 Q230.877,12.771 226.959,21.259 L182.841,116.491 Q180.043,122.553 180.043,124.419 Q180.043,129.176 185.919,130.015 L185.919,133 L142.081,133 L142.081,130.015 Q147.957,129.176 147.957,124.326 Q147.957,122.553 145.159,116.491 L101.041,21.259 Q97.123,12.771 95.538,10.999 Q93.952,9.227 89.848,8.667 L89.848,5.683 L135.085,5.683 L135.085,8.667 Q128.929,9.88 128.929,13.891 Q128.929,16.502 131.075,21.259 z" fill="#FFFFFF"/>
        <path d="M140.085,0.683 L140.085,12.778 L136.052,13.573 C135.373,13.74 134.549,13.855 133.953,14.234 C134.224,15.973 134.933,17.6 135.632,19.202 L164.839,83.91 L194.046,19.204 C194.802,17.612 195.381,15.959 195.726,14.234 C195.129,13.869 194.307,13.73 193.627,13.573 L189.593,12.778 L189.593,0.683 L243.152,0.683 L243.152,13.032 L238.827,13.621 C237.158,13.849 236.311,14.197 236.188,14.333 C235.6,14.991 233.874,18.21 231.496,23.361 L187.381,118.586 C186.508,120.477 185.865,122.013 185.457,123.168 C185.278,123.677 185.152,124.089 185.08,124.391 C185.049,124.527 185.058,124.479 185.048,124.534 L185.052,124.634 C185.506,124.913 186.111,124.974 186.626,125.065 L190.919,125.679 L190.919,138 L137.081,138 L137.081,125.679 L141.374,125.065 C141.892,124.964 142.48,124.921 142.936,124.628 C142.952,124.548 142.944,124.601 142.95,124.467 L142.927,124.365 C142.855,124.073 142.729,123.666 142.549,123.162 C142.14,122.016 141.494,120.483 140.622,118.592 L96.501,23.354 C94.127,18.21 92.4,14.991 91.812,14.333 C91.689,14.197 90.842,13.849 89.173,13.621 L84.848,13.032 L84.848,0.683 L140.085,0.683 z M135.085,5.683 L89.848,5.683 L89.848,8.667 Q93.952,9.227 95.538,10.999 Q97.123,12.771 101.041,21.259 L145.159,116.491 Q147.957,122.553 147.957,124.326 Q147.957,129.176 142.081,130.015 L142.081,133 L185.919,133 L185.919,130.015 Q180.043,129.176 180.043,124.419 Q180.043,122.553 182.841,116.491 L226.959,21.259 Q230.877,12.771 232.462,10.999 Q234.048,9.227 238.152,8.667 L238.152,5.683 L194.593,5.683 L194.593,8.667 Q200.749,9.88 200.749,13.891 Q200.749,16.502 198.604,21.259 L164.839,96.064 L131.075,21.259 Q128.929,16.502 128.929,13.891 Q128.929,9.88 135.085,8.667 L135.085,5.683 z" fill="#000000"/>
      </g>
      <g>
        <path d="M217.994,84.561 L217.994,97.625 L252.016,97.625 Q253.5,97.625 254.289,96.955 Q255.079,96.285 255.557,94.515 L256.897,94.515 L256.897,110.401 L255.557,110.401 Q255.127,108.726 254.313,108.033 Q253.5,107.339 252.016,107.339 L202.107,107.339 L202.107,105.999 Q203.782,105.568 204.476,104.755 Q205.17,103.941 205.17,102.458 L205.17,58.626 Q205.17,57.142 204.5,56.377 Q203.83,55.611 202.107,55.085 L202.107,53.745 L250.533,53.745 Q252.064,53.745 252.854,53.075 Q253.643,52.405 254.122,50.683 L255.414,50.683 L255.414,66.569 L254.122,66.569 Q253.643,64.799 252.854,64.129 Q252.064,63.459 250.533,63.459 L217.994,63.459 L217.994,75.23 L238.187,75.23 Q239.671,75.23 240.46,74.56 Q241.25,73.891 241.776,72.168 L243.068,72.168 L243.068,87.672 L241.776,87.672 Q241.298,85.949 240.508,85.255 Q239.718,84.561 238.187,84.561 z" fill="#FFFFFF"/>
        <path d="M258.414,47.682 L258.414,69.569 L251.825,69.569 L251.226,67.352 C251.026,66.712 251.135,66.999 250.916,66.486 C250.742,66.455 250.868,66.474 250.533,66.459 L220.994,66.459 L220.994,72.23 L238.187,72.23 C238.499,72.216 238.376,72.234 238.559,72.201 C238.823,71.579 238.709,71.883 238.907,71.291 L239.556,69.168 L246.068,69.168 L246.068,90.672 L239.496,90.672 L238.885,88.475 C238.708,87.897 238.811,88.192 238.571,87.591 C238.387,87.558 238.514,87.577 238.187,87.561 L220.994,87.561 L220.994,94.625 L252.016,94.625 C252.315,94.611 252.205,94.628 252.349,94.603 C252.571,94.085 252.461,94.374 252.661,93.732 L253.26,91.515 L259.897,91.515 L259.897,113.401 L253.231,113.401 L252.652,111.148 C252.506,110.638 252.591,110.898 252.393,110.371 C252.2,110.335 252.324,110.353 252.016,110.339 L199.107,110.339 L199.107,103.673 L201.36,103.093 C201.87,102.947 201.61,103.032 202.137,102.835 C202.173,102.641 202.155,102.766 202.17,102.458 L202.17,58.626 C202.157,58.338 202.173,58.44 202.151,58.316 L202.141,58.311 C201.931,58.197 201.626,58.075 201.23,57.954 L199.107,57.305 L199.107,50.745 L250.533,50.745 C250.878,50.729 250.742,50.749 250.943,50.713 C251.158,50.153 251.062,50.431 251.231,49.88 L251.842,47.682 L258.414,47.682 z M255.414,50.682 L254.122,50.682 Q253.643,52.405 252.854,53.075 Q252.064,53.745 250.533,53.745 L202.107,53.745 L202.107,55.085 Q203.83,55.611 204.5,56.377 Q205.17,57.142 205.17,58.626 L205.17,102.458 Q205.17,103.941 204.476,104.755 Q203.782,105.568 202.107,105.999 L202.107,107.339 L252.016,107.339 Q253.5,107.339 254.313,108.033 Q255.127,108.726 255.557,110.401 L256.897,110.401 L256.897,94.515 L255.557,94.515 Q255.079,96.285 254.289,96.955 Q253.5,97.625 252.016,97.625 L217.994,97.625 L217.994,84.561 L238.187,84.561 Q239.718,84.561 240.508,85.255 Q241.298,85.949 241.776,87.672 L243.068,87.672 L243.068,72.168 L241.776,72.168 Q241.25,73.891 240.46,74.56 Q239.671,75.23 238.187,75.23 L217.994,75.23 L217.994,63.459 L250.533,63.459 Q252.064,63.459 252.854,64.129 Q253.643,64.799 254.122,66.569 L255.414,66.569 L255.414,50.682 z" fill="#040404"/>
      </g>
      <g>
        <path d="M280.339,85.327 L280.339,102.458 Q280.339,103.941 281.008,104.731 Q281.678,105.52 283.401,106.047 L283.401,107.339 L264.452,107.339 L264.452,105.999 Q266.127,105.568 266.82,104.755 Q267.514,103.941 267.514,102.458 L267.514,58.626 Q267.514,57.142 266.844,56.377 Q266.174,55.611 264.452,55.085 L264.452,53.745 L299.575,53.745 Q306.418,53.745 310.007,54.439 Q313.595,55.133 316.419,56.951 Q322.209,60.731 322.209,69.297 Q322.209,75.805 318.644,79.465 Q315.079,83.126 307.135,84.753 L317.28,98.917 Q320.055,102.841 321.706,104.252 Q323.357,105.664 325.463,106.047 L325.463,107.339 L302.972,107.339 L302.972,106.047 Q305.461,105.377 305.461,103.893 Q305.461,102.841 303.929,100.687 L293.211,85.327 z M280.339,75.613 L299.671,75.613 Q304.073,75.613 306.178,74.656 Q309.145,73.364 309.145,69.536 Q309.145,66.139 307.064,64.799 Q304.982,63.459 299.671,63.459 L280.339,63.459 z" fill="#FFFFFF"/>
        <path d="M299.575,50.745 C304.311,50.745 307.96,50.988 310.576,51.493 C313.336,52.027 315.832,53.005 318.059,54.439 C322.827,57.552 325.209,62.63 325.209,69.297 C325.209,74.372 323.756,78.516 320.793,81.558 C318.4,84.007 315.301,85.487 312.079,86.504 L319.729,97.185 C321.447,99.613 322.79,101.232 323.656,101.972 C324.355,102.57 325.12,102.935 325.999,103.095 L328.462,103.543 L328.462,110.339 L299.972,110.339 L299.972,103.748 L302.002,103.201 L301.469,102.404 L291.646,88.327 L283.339,88.327 L283.339,102.458 C283.353,102.77 283.335,102.647 283.368,102.83 C283.99,103.094 283.686,102.98 284.278,103.178 L286.401,103.826 L286.401,110.339 L261.452,110.339 L261.452,103.673 L263.705,103.093 C264.215,102.947 263.955,103.032 264.482,102.835 C264.518,102.641 264.5,102.766 264.514,102.458 L264.514,58.626 C264.501,58.338 264.518,58.44 264.496,58.316 L264.486,58.311 C264.276,58.197 263.971,58.075 263.575,57.954 L261.452,57.305 L261.452,50.745 L299.575,50.745 z M299.575,53.745 L264.452,53.745 L264.452,55.085 Q266.174,55.611 266.844,56.377 Q267.514,57.142 267.514,58.626 L267.514,102.458 Q267.514,103.941 266.82,104.755 Q266.127,105.568 264.452,105.999 L264.452,107.339 L283.401,107.339 L283.401,106.047 Q281.678,105.52 281.008,104.731 Q280.339,103.941 280.339,102.458 L280.339,85.327 L293.211,85.327 L303.929,100.687 Q305.461,102.841 305.461,103.893 Q305.461,105.377 302.972,106.047 L302.972,107.339 L325.462,107.339 L325.462,106.047 Q323.357,105.664 321.706,104.252 Q320.055,102.841 317.28,98.917 L307.135,84.753 Q315.079,83.126 318.644,79.465 Q322.209,75.805 322.209,69.297 Q322.209,60.731 316.419,56.951 Q313.595,55.133 310.007,54.439 Q306.418,53.745 299.575,53.745 z M299.671,63.459 Q304.982,63.459 307.064,64.799 Q309.145,66.139 309.145,69.536 Q309.145,73.364 306.178,74.656 Q304.073,75.613 299.671,75.613 L280.339,75.613 L280.339,63.459 L299.671,63.459 z M299.671,66.459 L283.339,66.459 L283.339,72.613 L299.671,72.613 C302.215,72.613 304.001,72.351 304.98,71.906 C305.8,71.549 306.145,70.953 306.145,69.536 C306.145,68.213 305.877,67.603 305.44,67.321 C304.655,66.816 302.684,66.459 299.671,66.459 z" fill="#040404"/>
      </g>
    </g>
  </g>
</svg>
